<svg xmlns="http://www.w3.org/2000/svg" viewBox="0 0 660 400">
  <style>
    .st0{fill:#fff}.st1{fill-rule:evenodd;clip-rule:evenodd}@media (prefers-color-scheme:dark){*{fill:#fff}.st0{fill:currentColor}}
  </style>
  <g>
    <path d="M97.9 221.2a3.38 3.38 0 0 0-3.33 3.33V341.2a3.46 3.46 0 0 0 3.33 3.33h143.33a3.46 3.46 0 0 0 3.33-3.33V224.53a3.46 3.46 0 0 0-3.33-3.33H97.9z"/>
    <g>
      <rect width="136.67" height="33.33" x="101.24" y="227.86" class="st0"/>
      <g>
        <g>
          <circle cx="132.9" cy="244.53" r="11.67"/>
          <circle cx="132.9" cy="244.53" r="5" class="st0"/>
        </g>
        <g>
          <circle cx="206.24" cy="244.53" r="11.67"/>
          <circle cx="206.24" cy="244.53" r="5" class="st0"/>
        </g>
      </g>
    </g>
    <g>
      <rect width="136.67" height="70" x="101.24" y="267.86" class="st0"/>
      <g>
        <path d="M169.57 272.86c-7.51 0-14.86 3.73-16.56 10.89-.48 1.51.59 3.9 2.4 4.32a3.46 3.46 0 0 0 4.06-2.81c.78-3.3 4.74-5.73 10.1-5.73 5.81 0 10 3.89 10 8.12 0 7.4-2.26 8.98-5.57 12.03-3.31 3.05-7.76 7.62-7.76 16.51a3.48 3.48 0 0 0 3.33 3.39 3.46 3.46 0 0 0 3.33-3.39c0-7.03 2.22-8.47 5.57-11.56s7.76-7.79 7.76-16.98c.01-8.42-7.75-14.79-16.66-14.79z"/>
        <circle cx="169.73" cy="327.86" r="5"/>
      </g>
    </g>
  </g>
  <g>
    <path d="M97.9 61.09a3.38 3.38 0 0 0-3.33 3.33v116.67a3.46 3.46 0 0 0 3.33 3.33h143.33a3.46 3.46 0 0 0 3.33-3.33V64.42a3.46 3.46 0 0 0-3.33-3.33H97.9z"/>
    <g>
      <rect width="136.67" height="33.33" x="101.24" y="67.75" class="st0"/>
      <g>
        <g>
          <circle cx="132.9" cy="84.42" r="11.67"/>
          <circle cx="132.9" cy="84.42" r="5" class="st0"/>
        </g>
        <g>
          <circle cx="206.24" cy="84.42" r="11.67"/>
          <circle cx="206.24" cy="84.42" r="5" class="st0"/>
        </g>
      </g>
    </g>
    <g>
      <rect width="136.67" height="70" x="101.24" y="107.75" class="st0"/>
      <g>
        <circle cx="169.57" cy="166.09" r="5"/>
        <path d="M169.57 114.42a5 5 0 0 0-5 4.95c.56 11.99 1.16 24.32 1.67 35.1a3.33 3.33 0 0 0 6.66 0l1.67-35.05a5 5 0 0 0-5-5z"/>
      </g>
    </g>
  </g>
  <g>
    <path d="M415.43 141.14a3.38 3.38 0 0 0-3.33 3.33v116.67a3.46 3.46 0 0 0 3.33 3.33h143.33a3.46 3.46 0 0 0 3.33-3.33V144.48a3.46 3.46 0 0 0-3.33-3.33H415.43z"/>
    <g>
      <rect width="136.67" height="33.33" x="418.76" y="147.81" class="st0"/>
      <g>
        <g>
          <circle cx="450.43" cy="164.48" r="11.67"/>
          <circle cx="450.43" cy="164.48" r="5" class="st0"/>
        </g>
        <g>
          <circle cx="523.76" cy="164.48" r="11.67"/>
          <circle cx="523.76" cy="164.48" r="5" class="st0"/>
        </g>
      </g>
    </g>
    <g>
      <rect width="136.67" height="70" x="418.76" y="187.81" class="st0"/>
      <g>
        <path d="M469.59 194.48c-4.45 0-8.98 1.65-12.4 4.95a16.75 16.75 0 0 0 0 24.11l7.55 7.29 20 19.38a3.34 3.34 0 0 0 4.64 0l20.05-19.38 7.55-7.29a16.75 16.75 0 0 0 0-24.11 17.87 17.87 0 0 0-24.69 0l-5.21 5.05-5.21-5.05a17.55 17.55 0 0 0-12.28-4.95z"/>
        <path d="M469.59 201.14c2.78 0 5.52 1.01 7.66 3.07l7.5 7.29a3.34 3.34 0 0 0 4.64 0l7.55-7.29a11.18 11.18 0 0 1 15.42 0 9.86 9.86 0 0 1 0 14.53l-7.6 7.29-17.66 17.14-17.66-17.14-7.6-7.29a9.86 9.86 0 0 1 0-14.53 11.18 11.18 0 0 1 7.75-3.07z" class="st0"/>
      </g>
    </g>
  </g>
  <g>
    <rect width="14.49" height="61.47" x="274.61" y="135.86" class="st1" transform="rotate(-45 281.85 166.6)"/>
    <polygon points="368.78 195.57 368.78 166.59 405 202.81 368.78 239.03 368.78 210.05 321.07 210.05 265.24 265.88 255 255.64 315.07 195.57" class="st1"/>
  </g>
</svg>
